<svg width="14" height="15" viewBox="0 0 14 15" fill="none" xmlns="http://www.w3.org/2000/svg">
<path d="M9.44125 11.798L8.029 10.3849C7.48286 10.5801 6.8925 10.6163 6.32662 10.4891C5.76073 10.362 5.24259 10.0768 4.83247 9.66666C4.42235 9.25654 4.13712 8.73839 4.00998 8.17251C3.88283 7.60662 3.91899 7.01626 4.11425 6.47012L2.31175 4.66762C0.82075 5.99325 0 7.5 0 7.5C0 7.5 2.625 12.3125 7 12.3125C7.84035 12.3096 8.6712 12.1345 9.44125 11.798ZM4.55875 3.202C5.3288 2.8655 6.15964 2.69039 7 2.6875C11.375 2.6875 14 7.5 14 7.5C14 7.5 13.1784 9.00588 11.6891 10.3333L9.88488 8.529C10.0801 7.98286 10.1163 7.3925 9.98915 6.82662C9.862 6.26073 9.57678 5.74258 9.16666 5.33247C8.75654 4.92235 8.23839 4.63712 7.67251 4.50998C7.10662 4.38283 6.51626 4.41899 5.97013 4.61425L4.55875 3.20288V3.202Z" fill="#6C757D"/>
<path d="M4.83457 7.19034C4.78644 7.52661 4.81728 7.86947 4.92466 8.19175C5.03204 8.51404 5.213 8.80688 5.4532 9.04708C5.69341 9.28729 5.98625 9.46825 6.30853 9.57562C6.63081 9.683 6.97367 9.71385 7.30994 9.66572L4.83369 7.19034H4.83457ZM9.16582 7.80984L6.69044 5.33359C7.02672 5.28546 7.36958 5.31631 7.69186 5.42369C8.01414 5.53106 8.30698 5.71202 8.54719 5.95223C8.78739 6.19243 8.96835 6.48527 9.07573 6.80756C9.18311 7.12984 9.21395 7.4727 9.16582 7.80897V7.80984Z" fill="#6C757D"/>
<path fill-rule="evenodd" clip-rule="evenodd" d="M11.9404 13.0597L1.44043 2.55969L2.05993 1.94019L12.5599 12.4402L11.9404 13.0597Z" fill="#6C757D"/>
</svg>
